<?xml version="1.0" standalone="no"?>
<!DOCTYPE svg PUBLIC "-//W3C//DTD SVG 20010904//EN"
 "http://www.w3.org/TR/2001/REC-SVG-20010904/DTD/svg10.dtd">
<svg version="1.0" xmlns="http://www.w3.org/2000/svg"
 width="102.000000pt" height="92.000000pt" viewBox="0 0 102.000000 92.000000"
 preserveAspectRatio="xMidYMid meet">

<g transform="translate(0.000000,92.000000) scale(0.100000,-0.100000)"
fill="#000000" stroke="none">
<path d="M335 876 c-197 -62 -318 -218 -317 -406 1 -129 42 -222 134 -305 267
-241 703 -100 759 245 15 97 -15 226 -70 296 l-20 26 -6 -29 c-13 -55 -27 -94
-34 -91 -4 2 -42 44 -86 93 -43 50 -88 100 -99 113 -21 23 -21 24 -2 37 18 14
18 15 -8 25 -38 14 -202 11 -251 -4z m-112 -193 c19 -16 43 -33 53 -40 15 -10
16 -12 3 -12 -8 -1 -24 5 -34 13 -17 12 -20 11 -30 -8 -8 -16 -20 -21 -48 -21
-31 0 -37 -3 -37 -21 0 -40 40 -177 65 -222 29 -51 31 -59 11 -43 -38 32 -95
215 -96 308 0 75 49 95 113 46z m375 -551 c3 -17 -2 -22 -17 -22 -12 0 -21 -6
-21 -15 0 -10 -10 -15 -30 -15 -16 0 -30 5 -30 10 0 6 -10 10 -22 9 -22 0 -22
-1 -3 -9 16 -6 12 -8 -17 -8 -31 1 -38 5 -39 22 -2 19 -2 19 -6 -2 -7 -35 -47
-26 -51 12 -3 22 0 27 12 23 8 -3 17 -1 20 6 3 9 7 8 14 -2 11 -16 82 -17 91
-2 6 9 64 20 86 16 6 -1 11 -11 13 -23z"/>
<path d="M137 683 c-14 -14 -7 -52 12 -58 36 -11 67 17 55 50 -6 15 -55 21
-67 8z"/>
<path d="M513 124 c-6 -17 13 -42 24 -30 4 4 1 11 -7 16 -13 8 -12 10 3 10 9
0 17 5 17 10 0 16 -30 11 -37 -6z"/>
<path d="M381 104 c0 -11 3 -14 6 -6 3 7 2 16 -1 19 -3 4 -6 -2 -5 -13z"/>
<path d="M643 869 c-18 -12 -33 -24 -33 -27 0 -4 38 -51 84 -104 l85 -97 12
53 c33 147 -46 240 -148 175z"/>
<path d="M132 874 c-20 -9 -42 -60 -42 -99 l0 -36 64 54 c35 30 69 57 77 59 8
3 11 9 7 13 -9 9 -89 16 -106 9z"/>
<path d="M933 704 c25 -49 30 -125 14 -195 -9 -35 -18 -83 -20 -107 -6 -54 10
-44 44 26 33 70 32 169 -4 239 -15 28 -32 55 -38 58 -6 4 -4 -6 4 -21z"/>
</g>
</svg>
